<svg xmlns="http://www.w3.org/2000/svg" width="1800" height="1260" viewBox="0 0 1800 1260">
  <rect width="1800" height="1260" fill="#eef2f7"/>
  <text x="60" y="62" font-family="Microsoft YaHei, Arial, sans-serif" font-size="32" font-weight="800" fill="#101722">SignalOS 页面 UI / UX / 布局效果图</text>
  <text x="60" y="96" font-family="Microsoft YaHei, Arial, sans-serif" font-size="16" fill="#66717e">依据 apps/web/src/components/AppShell.tsx 的真实页面结构绘制：5 个底部导航页 + 币种详情页。用于布局确认，不代表新增功能。</text>

  <defs>
    <filter id="shadow" x="-20%" y="-20%" width="140%" height="140%">
      <feDropShadow dx="0" dy="14" stdDeviation="18" flood-color="#12203a" flood-opacity="0.12"/>
    </filter>
    <style>
      .phone{fill:#f4f7fb;stroke:#d8e0ea;stroke-width:1.5;filter:url(#shadow)}
      .bar{fill:#fff;stroke:#e4eaf3;stroke-width:1}
      .card{fill:#fff;stroke:#e4eaf3;stroke-width:1}
      .soft{fill:#f6f8fb;stroke:#e4eaf3;stroke-width:1}
      .blue{fill:#326cff}
      .green{fill:#22ae73}
      .red{fill:#f04f5f}
      .muted{fill:#6b7480}
      .title{font:800 23px Microsoft YaHei,Arial,sans-serif;fill:#101722}
      .h2{font:800 17px Microsoft YaHei,Arial,sans-serif;fill:#101722}
      .txt{font:400 13px Microsoft YaHei,Arial,sans-serif;fill:#536072}
      .small{font:400 11px Microsoft YaHei,Arial,sans-serif;fill:#7a8492}
      .nav{font:400 11px Microsoft YaHei,Arial,sans-serif;fill:#89929e}
      .pill{fill:#e8f0ff;stroke:#d2e0ff;stroke-width:1}
    </style>
  </defs>

  <!-- Data -->
  <g transform="translate(60 135)">
    <rect class="phone" width="250" height="500" rx="28"/>
    <rect class="bar" x="0" y="0" width="250" height="62" rx="28"/>
    <text x="18" y="37" class="title">SignalOS</text>
    <rect class="pill" x="154" y="19" width="66" height="24" rx="12"/>
    <text x="166" y="35" class="small" fill="#245fd7">数据中枢</text>
    <circle cx="229" cy="31" r="10" fill="none" stroke="#101722" stroke-width="3"/>
    <line x1="236" y1="39" x2="244" y2="47" stroke="#326cff" stroke-width="4"/>
    <text x="18" y="96" class="title">数据</text>
    <text x="188" y="96" class="h2" fill="#326cff">市场指标</text>
    <rect class="soft" x="18" y="118" width="100" height="64" rx="8"/>
    <text x="28" y="142" class="small">监控币种</text><text x="28" y="169" class="h2">128</text>
    <rect class="soft" x="132" y="118" width="100" height="64" rx="8"/>
    <text x="142" y="142" class="small">高风险拥挤</text><text x="142" y="169" class="h2">17</text>
    <text x="18" y="216" class="h2">核心行情</text><text x="184" y="216" class="small" fill="#326cff">实时扫描</text>
    <g transform="translate(18 236)">
      <rect class="card" width="214" height="44" rx="8"/><text x="0" y="18" class="h2">BTC</text><text x="66" y="18" class="h2">$76984.71</text><text x="150" y="18" class="h2" fill="#22ae73">+1.20%</text><circle cx="198" cy="22" r="17" fill="#326cff"/><text x="191" y="27" class="small" fill="#fff">72</text>
      <rect class="card" y="54" width="214" height="44" rx="8"/><text x="0" y="72" class="h2">ETH</text><text x="66" y="72" class="h2">$3606.80</text><text x="150" y="72" class="h2" fill="#22ae73">+3.86%</text><circle cx="198" cy="76" r="17" fill="#326cff"/><text x="191" y="81" class="small" fill="#fff">78</text>
      <rect class="card" y="108" width="214" height="44" rx="8"/><text x="0" y="126" class="h2">UB</text><text x="66" y="126" class="h2">$0.1543</text><text x="150" y="126" class="h2" fill="#22ae73">+28%</text><circle cx="198" cy="130" r="17" fill="#326cff"/><text x="191" y="135" class="small" fill="#fff">91</text>
    </g>
    <text x="18" y="424" class="h2">异常指标</text>
    <rect class="bar" y="428" width="250" height="72"/>
    <circle cx="125" cy="432" r="28" fill="#326cff"/><text x="114" y="441" font-family="Arial" font-size="22" font-weight="800" fill="#fff">AI</text>
    <text x="22" y="476" class="nav">数据</text><text x="74" y="476" class="nav">ValueClaw</text><text x="176" y="476" class="nav">信号</text><text x="218" y="476" class="nav">我的</text>
  </g>

  <!-- Claw -->
  <g transform="translate(360 135)">
    <rect class="phone" width="250" height="500" rx="28"/>
    <rect class="bar" width="250" height="62" rx="28"/>
    <text x="18" y="37" class="title">SignalOS</text><rect class="pill" x="148" y="19" width="74" height="24" rx="12"/><text x="160" y="35" class="small" fill="#245fd7">分析助手</text>
    <text x="18" y="104" font-family="Microsoft YaHei,Arial" font-size="20" font-weight="800" fill="#326cff">像聊天一样，完成专业级分析</text>
    <text x="18" y="130" class="txt">行情/趋势解读、回测分析、定时任务</text>
    <rect class="card" x="18" y="150" width="214" height="250" rx="10"/>
    <circle cx="30" cy="168" r="3.5" fill="#f96b61"/><circle cx="42" cy="168" r="3.5" fill="#f7c948"/><circle cx="54" cy="168" r="3.5" fill="#57bd78"/>
    <text x="104" y="172" class="h2">ValueClaw</text>
    <rect class="soft" x="32" y="194" width="186" height="42" rx="5"/><text x="42" y="220" class="txt">今天有哪些币可以买</text>
    <text x="32" y="260" class="h2" fill="#10b981">已分析</text><text x="88" y="260" class="small">2026-01-20 12:23</text>
    <text x="32" y="292" class="h2">今日值得关注的币种</text>
    <circle cx="38" cy="318" r="3" fill="#22ae73"/><text x="50" y="323" class="txt">AI 机会币：ARC / RIVER / DOGE</text>
    <circle cx="38" cy="344" r="3" fill="#111722"/><text x="50" y="349" class="txt">包含评分、涨幅、风险提示</text>
    <circle cx="38" cy="370" r="3" fill="#111722"/><text x="50" y="375" class="txt">底部显示币种最新数据卡</text>
    <rect class="bar" y="428" width="250" height="72"/>
    <circle cx="125" cy="432" r="28" fill="#326cff"/><text x="114" y="441" font-family="Arial" font-size="22" font-weight="800" fill="#fff">AI</text>
    <text x="22" y="476" class="nav">数据</text><text x="74" y="476" class="nav">ValueClaw</text><text x="176" y="476" class="nav">信号</text><text x="218" y="476" class="nav">我的</text>
  </g>

  <!-- Radar -->
  <g transform="translate(660 135)">
    <rect class="phone" width="250" height="500" rx="28"/>
    <rect class="bar" width="250" height="68" rx="28"/><text x="18" y="42" font-family="Microsoft YaHei,Arial" font-size="24" font-weight="900" fill="#101722">SignalOS</text><text x="160" y="39" class="txt">市场正常</text>
    <rect class="card" x="14" y="82" width="222" height="140" rx="12"/>
    <text x="28" y="112" class="title">风险雷达</text><rect class="pill" x="28" y="124" width="74" height="24" rx="6"/><text x="38" y="140" class="small" fill="#326cff">异常扫描</text>
    <path d="M46 166 L65 150 L84 166 L76 197 L65 207 L54 197 Z" fill="none" stroke="#24b477" stroke-width="6"/>
    <text x="110" y="170" class="small">风险状态</text><text x="110" y="194" class="h2" fill="#22ae73">可控</text>
    <circle cx="190" cy="172" r="34" fill="#e9f8f0" stroke="#24b477"/><line x1="190" y1="172" x2="210" y2="148" stroke="#24b477" stroke-width="3"/>
    <g transform="translate(14 238)">
      <rect class="card" width="68" height="92" rx="10"/><text x="10" y="24" class="small">1</text><text x="10" y="48" class="h2">UB</text><text x="10" y="75" class="h2" fill="#22ae73">91</text>
      <rect class="card" x="77" width="68" height="92" rx="10"/><text x="87" y="24" class="small">2</text><text x="87" y="48" class="h2">ETH</text><text x="87" y="75" class="h2" fill="#22ae73">84</text>
      <rect class="card" x="154" width="68" height="92" rx="10"/><text x="164" y="24" class="small">3</text><text x="164" y="48" class="h2">BTC</text><text x="164" y="75" class="h2" fill="#f04f5f">72</text>
    </g>
    <rect x="14" y="346" width="104" height="40" rx="8" fill="#fff" stroke="#326cff"/><text x="38" y="371" class="h2" fill="#326cff">预览</text>
    <rect x="132" y="346" width="104" height="40" rx="8" fill="#326cff"/><text x="154" y="371" class="h2" fill="#fff">推送</text>
    <rect class="card" x="14" y="402" width="222" height="60" rx="10"/><text x="28" y="428" class="h2">异常榜单</text><text x="28" y="450" class="small">横向表格：币种 / 方向 / 分数 / 操作</text>
    <rect class="bar" y="428" width="250" height="72"/>
    <circle cx="125" cy="432" r="28" fill="#326cff"/><text x="114" y="441" font-family="Arial" font-size="22" font-weight="800" fill="#fff">AI</text>
  </g>

  <!-- Signal -->
  <g transform="translate(960 135)">
    <rect class="phone" width="250" height="500" rx="28"/>
    <rect class="bar" width="250" height="62" rx="28"/><text x="18" y="37" class="title">SignalOS</text><rect class="pill" x="148" y="19" width="74" height="24" rx="12"/><text x="158" y="35" class="small" fill="#245fd7">告警运营</text>
    <text x="18" y="96" class="title">信号</text><text x="170" y="96" class="h2" fill="#326cff">飞书推送</text>
    <rect class="card" x="18" y="116" width="214" height="58" rx="12"/><text x="32" y="140" class="h2">定时扫描</text><text x="32" y="160" class="small">间隔、运行次数、启动/停止</text><rect x="174" y="132" width="42" height="24" rx="6" fill="#326cff"/><text x="185" y="148" class="small" fill="#fff">开启</text>
    <rect class="card" x="18" y="186" width="214" height="74" rx="12"/><text x="32" y="212" class="h2">飞书机器人</text><text x="32" y="234" class="small">Webhook 输入框 + 保存 + 测试</text><rect class="soft" x="32" y="242" width="150" height="10" rx="4"/>
    <rect class="card" x="18" y="272" width="214" height="84" rx="12"/><text x="32" y="298" class="h2">告警规则</text><text x="32" y="320" class="small">币种、周期、最低分、方向、冷却</text><rect class="soft" x="32" y="334" width="46" height="16" rx="4"/><rect class="soft" x="86" y="334" width="46" height="16" rx="4"/><rect class="soft" x="140" y="334" width="46" height="16" rx="4"/>
    <rect x="18" y="372" width="102" height="38" rx="8" fill="#326cff"/><text x="43" y="396" class="h2" fill="#fff">预览</text><rect x="130" y="372" width="102" height="38" rx="8" fill="#326cff"/><text x="154" y="396" class="h2" fill="#fff">推送</text>
    <rect class="bar" y="428" width="250" height="72"/><circle cx="125" cy="432" r="28" fill="#326cff"/><text x="114" y="441" font-family="Arial" font-size="22" font-weight="800" fill="#fff">AI</text>
  </g>

  <!-- Account -->
  <g transform="translate(1260 135)">
    <rect class="phone" width="250" height="500" rx="28"/>
    <rect class="bar" width="250" height="62" rx="28"/><text x="18" y="37" class="title">SignalOS</text><rect class="pill" x="148" y="19" width="74" height="24" rx="12"/><text x="159" y="35" class="small" fill="#245fd7">账户团队</text>
    <text x="18" y="96" class="title">我的</text><text x="186" y="96" class="h2" fill="#326cff">商业化</text>
    <rect class="card" x="18" y="116" width="214" height="100" rx="12"/>
    <circle cx="46" cy="148" r="19" fill="#326cff"/><text x="37" y="154" class="small" fill="#fff">AI</text><text x="76" y="144" class="h2">YanSir</text><text x="76" y="164" class="small">admin / SVIP</text><rect class="soft" x="32" y="184" width="172" height="10" rx="5"/><rect x="32" y="184" width="72" height="10" rx="5" fill="#326cff"/>
    <text x="18" y="250" class="h2">会员套餐</text><rect class="card" x="18" y="266" width="214" height="44" rx="10"/><text x="32" y="293" class="h2">SVIP</text><text x="176" y="293" class="h2" fill="#326cff">¥699</text>
    <text x="18" y="338" class="h2">账户菜单</text>
    <rect class="card" x="18" y="354" width="214" height="36" rx="8"/><text x="32" y="377" class="txt">权益中心 / 订单中心 / 预警设置</text>
    <rect class="card" x="18" y="398" width="214" height="36" rx="8"/><text x="32" y="421" class="txt">用户管理 / 主题 / 语言 / 退出</text>
    <rect class="bar" y="428" width="250" height="72"/><circle cx="125" cy="432" r="28" fill="#326cff"/><text x="114" y="441" font-family="Arial" font-size="22" font-weight="800" fill="#fff">AI</text>
  </g>

  <!-- Detail -->
  <g transform="translate(60 700)">
    <rect class="phone" width="250" height="500" rx="28"/>
    <rect class="bar" width="250" height="62" rx="28"/><text x="20" y="38" font-family="Arial" font-size="28" fill="#101722">‹</text><circle cx="76" cy="31" r="17" fill="#f5a21a"/><text x="69" y="37" class="small" fill="#fff">B</text><text x="104" y="38" class="title">BTC</text><text x="198" y="37" class="txt">详情</text>
    <text x="18" y="104" font-family="Arial" font-size="28" font-weight="800" fill="#f04f5f">$76984.71</text><text x="18" y="128" class="txt">多头拥挤 / 实时行情</text>
    <g transform="translate(145 86)"><text x="0" y="18" class="small">24h 高</text><text x="58" y="18" class="h2">$78100</text><text x="0" y="42" class="small">24h 低</text><text x="58" y="42" class="h2">$75200</text></g>
    <g transform="translate(18 154)"><rect x="0" y="0" width="42" height="24" rx="6" fill="#e8f0ff"/><text x="14" y="16" class="small" fill="#326cff">5m</text><rect class="soft" x="50" y="0" width="42" height="24" rx="6"/><text x="63" y="16" class="small">15m</text><rect class="soft" x="100" y="0" width="42" height="24" rx="6"/><text x="116" y="16" class="small">1h</text><rect class="soft" x="150" y="0" width="42" height="24" rx="6"/><text x="164" y="16" class="small">4h</text></g>
    <rect class="card" x="18" y="196" width="214" height="132" rx="12"/>
    <polyline points="32,286 54,262 76,276 98,230 120,246 142,216 164,236 186,210 210,224" fill="none" stroke="#326cff" stroke-width="3"/>
    <line x1="32" y1="300" x2="218" y2="300" stroke="#e4eaf3"/><text x="32" y="318" class="small">价格走势 / K 线占位</text>
    <text x="18" y="362" class="h2">资金数据</text>
    <rect class="card" x="18" y="378" width="214" height="64" rx="10"/><text x="32" y="404" class="txt">时间 / 流入 / 流出 / 净流入</text><text x="32" y="426" class="small">5分钟、15分钟、30分钟、1小时、4小时</text>
    <rect class="bar" y="428" width="250" height="72"/><text x="18" y="472" class="nav">返回后恢复原导航页</text>
  </g>

  <g transform="translate(360 720)">
    <text x="0" y="0" class="title">页面覆盖说明</text>
    <text x="0" y="36" class="txt">1. 数据页：DataView，市场概览、核心行情、异常指标。</text>
    <text x="0" y="66" class="txt">2. ValueClaw 页：ClawView，聊天输入、分析结果、数据卡。</text>
    <text x="0" y="96" class="txt">3. 雷达页：RadarConceptView，风险面板、优先级卡、扫描操作、异常表。</text>
    <text x="0" y="126" class="txt">4. 告警页：SignalViewV2，定时扫描、飞书配置、规则、候选信号与历史。</text>
    <text x="0" y="156" class="txt">5. 账户页：AccountView，资料卡、套餐、菜单、账户面板与管理员用户管理。</text>
    <text x="0" y="186" class="txt">6. 币种详情：SymbolDetailView，从数据/雷达等列表点击币种进入。</text>
    <text x="0" y="236" class="small">注：此 SVG 是效果图交付物，不修改应用源码；颜色、卡片、底栏、按钮均取自当前 CSS 的主视觉语义。</text>
  </g>
</svg>
