<svg xmlns="http://www.w3.org/2000/svg" width="888" height="1818" viewBox="0 0 888 1818">
  <defs>
    <style>
      .bg{fill:#fbfcff}
      .card{fill:#fff;stroke:#dbe2ef;stroke-width:1.5}
      .muted{fill:#778198;font:400 22px "Microsoft YaHei",Arial,sans-serif}
      .small{fill:#778198;font:400 18px "Microsoft YaHei",Arial,sans-serif}
      .label{fill:#0f172a;font:700 22px "Microsoft YaHei",Arial,sans-serif}
      .title{fill:#111827;font:800 31px "Microsoft YaHei",Arial,sans-serif}
      .h1{fill:#111827;font:900 40px "Microsoft YaHei",Arial,sans-serif}
      .brand{fill:#05070d;font:900 52px "Segoe UI",Arial,sans-serif}
      .blue{fill:#2f66f2}
      .green{fill:#20aa73}
      .red{fill:#f24b55}
      .orange{fill:#f59f13}
      .line{stroke:#e7ebf2;stroke-width:1.4}
      .btnText{font:800 27px "Microsoft YaHei",Arial,sans-serif}
    </style>
    <filter id="softShadow" x="-12%" y="-12%" width="124%" height="124%">
      <feDropShadow dx="0" dy="10" stdDeviation="18" flood-color="#1b2b4a" flood-opacity=".08"/>
    </filter>
  </defs>

  <rect class="bg" width="888" height="1818"/>

  <!-- Header -->
  <text x="38" y="74" class="brand">Signal</text>
  <text x="197" y="74" class="brand" fill="#326cff">OS</text>
  <path d="M263 28 C284 28 301 45 301 66" fill="none" stroke="#326cff" stroke-width="5" stroke-linecap="round"/>
  <path d="M263 42 C276 42 287 53 287 66" fill="none" stroke="#326cff" stroke-width="4" stroke-linecap="round"/>
  <circle cx="404" cy="54" r="9" fill="#19ae74"/>
  <text x="424" y="64" class="label">市场正常</text>
  <path d="M518 46 L529 57 L518 68" fill="none" stroke="#111827" stroke-width="3" stroke-linecap="round" stroke-linejoin="round"/>
  <circle cx="823" cy="54" r="23" fill="none" stroke="#05070d" stroke-width="5"/>
  <path d="M840 72 L862 94" fill="none" stroke="#05070d" stroke-width="5" stroke-linecap="round"/>

  <!-- Focus card -->
  <rect x="26" y="121" width="836" height="407" rx="18" class="card" filter="url(#softShadow)"/>
  <text x="58" y="183" class="title">今日重点异常雷达</text>
  <rect x="318" y="152" width="166" height="38" rx="7" fill="#eaf1ff"/>
  <path d="M342 160 L349 173 L363 176 L351 184 L348 198 L340 185 L326 181 L339 173 Z" fill="#326cff"/>
  <text x="371" y="178" font-family="Microsoft YaHei,Arial" font-size="20" font-weight="700" fill="#326cff">AI 智能监控中</text>
  <text x="719" y="181" class="muted">查看全部</text>
  <path d="M821 162 L834 176 L821 190" fill="none" stroke="#778198" stroke-width="3" stroke-linecap="round" stroke-linejoin="round"/>

  <!-- Shield icon -->
  <path d="M116 277 L116 374 C116 421 158 456 195 468 C232 456 274 421 274 374 L274 277 C241 273 216 260 195 241 C174 260 149 273 116 277 Z" fill="#e5f8ee" stroke="#20aa73" stroke-width="9"/>
  <path d="M163 361 L190 388 L237 332" fill="none" stroke="#20aa73" stroke-width="11" stroke-linecap="round" stroke-linejoin="round"/>

  <text x="204" y="285" class="muted">风险姿态</text>
  <text x="204" y="345" fill="#20aa73" font-family="Microsoft YaHei,Arial" font-size="44" font-weight="900">偏低</text>
  <text x="204" y="394" class="muted">市场情绪稳定</text>
  <line x1="383" y1="259" x2="383" y2="397" stroke="#e4e9f2" stroke-width="2"/>

  <circle cx="436" cy="279" r="13" fill="none" stroke="#6d778e" stroke-width="3"/>
  <path d="M436 271 L436 281 L444 286" fill="none" stroke="#6d778e" stroke-width="3" stroke-linecap="round"/>
  <text x="465" y="290" class="muted">下次扫描</text>
  <text x="421" y="358" fill="#111827" font-family="Segoe UI",Arial,sans-serif font-size="46" font-weight="900">08:25</text>
  <text x="421" y="401" class="muted">5 分 23 秒后</text>

  <!-- Radar icon -->
  <circle cx="724" cy="335" r="96" fill="#e8f8f1" stroke="#cceee1"/>
  <circle cx="724" cy="335" r="67" fill="#d6f3e7" stroke="#aee3d0"/>
  <circle cx="724" cy="335" r="38" fill="#abe7ce"/>
  <circle cx="724" cy="335" r="11" fill="#20aa73"/>
  <path d="M724 335 L789 257" fill="none" stroke="#20aa73" stroke-width="5" stroke-linecap="round"/>

  <line x1="54" y1="450" x2="834" y2="450" class="line"/>
  <circle cx="64" cy="487" r="10" fill="none" stroke="#778198" stroke-width="3"/>
  <text x="60" y="494" font-family="Segoe UI" font-size="16" font-weight="700" fill="#778198">i</text>
  <text x="90" y="494" class="muted">基于链上数据、资金流向与价格行为的 8H 异常监控</text>
  <text x="719" y="494" font-family="Microsoft YaHei,Arial" font-size="22" font-weight="700" fill="#326cff">规则设置</text>
  <path d="M821 476 L834 490 L821 504" fill="none" stroke="#326cff" stroke-width="3" stroke-linecap="round" stroke-linejoin="round"/>

  <!-- Top 3 Cards -->
  <g transform="translate(26 565)">
    <rect width="286" height="264" rx="14" class="card"/>
    <rect x="14" y="8" width="28" height="31" rx="7" fill="#f24b55"/>
    <text x="21" y="31" fill="#fff" font-family="Segoe UI" font-size="20" font-weight="800">1</text>
    <circle cx="77" cy="68" r="24" fill="#ff9e18"/>
    <text x="66" y="79" fill="#fff" font-family="Segoe UI" font-size="28" font-weight="900">₿</text>
    <text x="113" y="78" class="label" font-size="24">BTC</text>
    <rect x="198" y="49" width="70" height="35" rx="6" fill="#fff0f0"/>
    <text x="215" y="73" font-family="Microsoft YaHei" font-size="19" font-weight="700" fill="#f24b55">↑ 强烈</text>
    <text x="34" y="145" fill="#f24b55" font-family="Segoe UI" font-size="48" font-weight="900">87</text>
    <text x="108" y="145" class="muted">/100</text>
    <circle cx="44" cy="190" r="9" fill="none" stroke="#182033" stroke-width="2"/>
    <text x="65" y="198" class="label" font-size="20">资金流入异常放大</text>
    <text x="34" y="236" class="small">主力资金 24H 净流入 </text>
    <text x="205" y="236" class="small" fill="#f24b55">+$1687万</text>
  </g>

  <g transform="translate(320 565)">
    <rect width="264" height="264" rx="14" class="card"/>
    <rect x="14" y="8" width="28" height="31" rx="7" fill="#f6a60b"/>
    <text x="21" y="31" fill="#fff" font-family="Segoe UI" font-size="20" font-weight="800">2</text>
    <circle cx="64" cy="68" r="24" fill="#f1f3f6"/>
    <path d="M64 38 L47 69 L64 79 L81 69 Z" fill="#111827"/>
    <path d="M64 82 L47 72 L64 98 L81 72 Z" fill="#555"/>
    <text x="101" y="78" class="label" font-size="24">ETH</text>
    <rect x="160" y="49" width="80" height="35" rx="6" fill="#e7f8ef"/>
    <text x="178" y="73" font-family="Microsoft YaHei" font-size="19" font-weight="700" fill="#20aa73">↑ 活跃</text>
    <text x="33" y="145" fill="#20aa73" font-family="Segoe UI" font-size="48" font-weight="900">72</text>
    <text x="106" y="145" class="muted">/100</text>
    <circle cx="44" cy="190" r="9" fill="none" stroke="#182033" stroke-width="2"/>
    <text x="65" y="198" class="label" font-size="20">合约短线拉升</text>
    <text x="33" y="236" class="small">24H 涨跌幅 </text>
    <text x="139" y="236" class="small" fill="#20aa73">+1.72%</text>
  </g>

  <g transform="translate(596 565)">
    <rect width="266" height="264" rx="14" class="card"/>
    <rect x="14" y="8" width="28" height="31" rx="7" fill="#326cff"/>
    <text x="21" y="31" fill="#fff" font-family="Segoe UI" font-size="20" font-weight="800">3</text>
    <circle cx="64" cy="68" r="24" fill="#111827"/>
    <path d="M45 62 L82 62 M45 75 L82 75" stroke="#8e5bff" stroke-width="6" stroke-linecap="round"/>
    <path d="M45 68 L82 68" stroke="#19c7a8" stroke-width="6" stroke-linecap="round"/>
    <text x="101" y="78" class="label" font-size="24">SOL</text>
    <rect x="156" y="49" width="80" height="35" rx="6" fill="#fff4d8"/>
    <text x="175" y="73" font-family="Microsoft YaHei" font-size="19" font-weight="700" fill="#df8a00">→ 关注</text>
    <text x="33" y="145" fill="#f59f13" font-family="Segoe UI" font-size="48" font-weight="900">61</text>
    <text x="106" y="145" class="muted">/100</text>
    <circle cx="44" cy="190" r="9" fill="none" stroke="#182033" stroke-width="2"/>
    <text x="65" y="198" class="label" font-size="20">交易量异动放大</text>
    <text x="33" y="236" class="small">24H 成交量 </text>
    <text x="140" y="236" class="small" fill="#20aa73">+46.21%</text>
  </g>

  <!-- Actions -->
  <rect x="26" y="874" width="410" height="86" rx="10" fill="#fff" stroke="#326cff" stroke-width="2"/>
  <circle cx="164" cy="917" r="18" fill="none" stroke="#326cff" stroke-width="3"/>
  <circle cx="164" cy="917" r="6" fill="#326cff"/>
  <text x="204" y="928" class="btnText" fill="#326cff">预览告警</text>
  <rect x="454" y="874" width="408" height="86" rx="10" fill="#326cff"/>
  <path d="M570 903 L604 886 L590 929 L579 913 L559 903 Z" fill="none" stroke="#fff" stroke-width="4" stroke-linejoin="round"/>
  <text x="625" y="928" class="btnText" fill="#fff">推送飞书</text>

  <!-- Table -->
  <rect x="26" y="999" width="836" height="722" rx="14" class="card"/>
  <text x="53" y="1056" class="title">异常信号列表</text>
  <text x="626" y="1054" class="muted">筛选</text>
  <path d="M682 1033 L703 1033 L694 1045 L694 1062 L690 1065 L690 1045 Z" fill="none" stroke="#778198" stroke-width="3" stroke-linejoin="round"/>
  <text x="744" y="1054" class="muted">自定义</text>
  <circle cx="827" cy="1044" r="10" fill="none" stroke="#778198" stroke-width="3"/>
  <line x1="26" y1="1083" x2="862" y2="1083" class="line"/>

  <text x="53" y="1128" class="muted">币种</text>
  <text x="224" y="1128" class="muted">异常评分</text>
  <text x="410" y="1128" class="muted">触发原因</text>
  <text x="596" y="1128" class="muted">置信度</text>
  <text x="790" y="1128" class="muted">操作</text>
  <line x1="26" y1="1152" x2="862" y2="1152" class="line"/>

  <g font-family="Microsoft YaHei,Arial" font-size="23">
    <g transform="translate(52 1195)">
      <circle cx="18" cy="0" r="18" fill="#ff9e18"/><text x="9" y="9" fill="#fff" font-size="23" font-weight="900">₿</text>
      <text x="47" y="8" fill="#111827">BTC</text><text x="205" y="8" fill="#f24b55" font-weight="800">87</text><text x="357" y="8" fill="#111827">资金流入异常</text><text x="560" y="8" fill="#20aa73" font-weight="800">92%</text>
      <rect x="690" y="-25" width="94" height="46" rx="6" fill="#fff" stroke="#326cff"/><text x="707" y="5" fill="#326cff" font-weight="700">详情 ›</text>
    </g>
    <line x1="53" y1="1237" x2="835" y2="1237" class="line"/>
    <g transform="translate(52 1279)">
      <circle cx="18" cy="0" r="18" fill="#f1f3f6"/><path d="M18 -20 L4 0 L18 9 L32 0 Z" fill="#111827"/><path d="M18 12 L4 3 L18 24 L32 3 Z" fill="#555"/>
      <text x="47" y="8" fill="#111827">ETH</text><text x="205" y="8" fill="#20aa73" font-weight="800">72</text><text x="357" y="8" fill="#111827">合约短线拉升</text><text x="560" y="8" fill="#20aa73" font-weight="800">85%</text>
      <rect x="690" y="-25" width="94" height="46" rx="6" fill="#fff" stroke="#326cff"/><text x="707" y="5" fill="#326cff" font-weight="700">详情 ›</text>
    </g>
    <line x1="53" y1="1321" x2="835" y2="1321" class="line"/>
    <g transform="translate(52 1363)">
      <circle cx="18" cy="0" r="18" fill="#111827"/><path d="M4 -6 L32 -6 M4 7 L32 7" stroke="#8e5bff" stroke-width="5" stroke-linecap="round"/><path d="M4 1 L32 1" stroke="#19c7a8" stroke-width="5" stroke-linecap="round"/>
      <text x="47" y="8" fill="#111827">SOL</text><text x="205" y="8" fill="#f59f13" font-weight="800">61</text><text x="357" y="8" fill="#111827">交易量异动</text><text x="560" y="8" fill="#20aa73" font-weight="800">78%</text>
      <rect x="690" y="-25" width="94" height="46" rx="6" fill="#fff" stroke="#326cff"/><text x="707" y="5" fill="#326cff" font-weight="700">详情 ›</text>
    </g>
    <line x1="53" y1="1405" x2="835" y2="1405" class="line"/>
    <g transform="translate(52 1447)">
      <circle cx="18" cy="0" r="18" fill="#6cc84f"/><text x="7" y="8" fill="#fff" font-size="20" font-weight="900">B</text>
      <text x="47" y="8" fill="#111827">BCH</text><text x="205" y="8" fill="#f59f13" font-weight="800">58</text><text x="357" y="8" fill="#111827">大额转账增加</text><text x="560" y="8" fill="#20aa73" font-weight="800">72%</text>
      <rect x="690" y="-25" width="94" height="46" rx="6" fill="#fff" stroke="#326cff"/><text x="707" y="5" fill="#326cff" font-weight="700">详情 ›</text>
    </g>
    <line x1="53" y1="1489" x2="835" y2="1489" class="line"/>
    <g transform="translate(52 1531)">
      <circle cx="18" cy="0" r="18" fill="#2e333d"/><text x="7" y="8" fill="#fff" font-size="20" font-weight="900">X</text>
      <text x="47" y="8" fill="#111827">XRP</text><text x="205" y="8" fill="#f5a400" font-weight="800">33</text><text x="357" y="8" fill="#111827">交易所净流出</text><text x="560" y="8" fill="#20aa73" font-weight="800">55%</text>
      <rect x="690" y="-25" width="94" height="46" rx="6" fill="#fff" stroke="#326cff"/><text x="707" y="5" fill="#326cff" font-weight="700">详情 ›</text>
    </g>
  </g>

  <text x="53" y="1694" class="muted">更新于 2026/06/08 08:20</text>
  <text x="644" y="1694" class="muted">数据来源：</text>
  <text x="746" y="1694" font-family="Segoe UI" font-size="22" font-weight="700" fill="#326cff">ValueClaw</text>

  <!-- Bottom nav -->
  <rect x="0" y="1738" width="888" height="80" fill="#fff" stroke="#e5e9f1"/>
  <text x="69" y="1794" class="muted">数据</text>
  <text x="213" y="1794" class="muted">ValueClaw</text>
  <circle cx="444" cy="1754" r="28" fill="#326cff"/>
  <path d="M426 1764 C426 1749 435 1739 444 1739 C453 1739 462 1749 462 1764" fill="none" stroke="#fff" stroke-width="5" stroke-linecap="round"/>
  <circle cx="444" cy="1756" r="7" fill="#fff"/>
  <text x="420" y="1800" font-family="Microsoft YaHei" font-size="25" font-weight="800" fill="#326cff">信号</text>
  <text x="604" y="1794" class="muted">告警</text>
  <text x="767" y="1794" class="muted">我的</text>
</svg>
